<svg id="Layer_1" data-name="Layer 1" xmlns="http://www.w3.org/2000/svg" viewBox="0 0 563.47 482"><defs><style>.cls-1{fill:#fff;}.cls-1,.cls-2,.cls-3{stroke:#000;stroke-miterlimit:10;}.cls-3{fill:none;}</style></defs><title>logo-black</title><path class="cls-1" d="M607.27,176.28" transform="translate(-141.72 -58.5)"/><polygon class="cls-2" points="321.91 0.5 321.91 161.21 241.56 161.21 241.56 80.85 81.14 80.85 81.41 0.5 321.91 0.5"/><polygon class="cls-2" points="321.91 241 321.91 401.15 0.5 401.15 0.5 0.5 81.41 0.5 80.86 80.85 81.14 80.85 80.86 161.21 80.86 320.79 241.56 320.79 241.56 241.28 321.91 241"/><polygon class="cls-3" points="241.56 161.21 241.56 241.28 161.21 241.56 161.21 161.21 241.56 161.21"/><polygon class="cls-2" points="321.91 161.21 321.91 241 241.56 241.28 241.56 161.21 321.91 161.21"/><polygon class="cls-2" points="241.91 161.21 241.91 241 161.56 241.28 161.56 161.21 241.91 161.21"/><polygon class="cls-2" points="562.97 161.21 562.97 241.56 402.27 241.56 402.27 481.5 321.91 481.5 322.47 241 321.91 241 321.91 161.21 562.97 161.21"/><polygon class="cls-1" points="160.78 161 160.78 242 241.78 241 241.78 321 80.78 321 80.78 81 241.78 81 241.78 161 160.78 161"/></svg>