<svg id="Layer_1" data-name="Layer 1" xmlns="http://www.w3.org/2000/svg" viewBox="0 0 648 576"><defs><style>.cls-1{fill:#fff;}</style></defs><title>logo black v2</title><rect x="0.5" y="0.5" width="647" height="575"/><path d="M719,1V575H73V1H719m1-1H72V576H720V0Z" transform="translate(-72)"/><polygon class="cls-1" points="299.5 236.05 299.5 185.65 198.7 185.65 198.7 336.85 299.5 336.85 299.5 286.45 349.9 286.45 349.9 387.25 148.3 387.25 148.3 135.25 349.9 135.25 349.9 236.05 299.5 236.05"/><path class="cls-1" d="M422.4,387.75H219.8v-253H422.4v101.8H371v-50.4H271.2v150.2H371V286h51.4Zm-201.6-1H421.4V287H372v50.4H270.2V185.15H372v50.4h49.4v-99.8H220.8Z" transform="translate(-72)"/><polygon class="cls-1" points="248.75 236.4 500.75 236.4 500.75 286.8 399.95 286.8 399.95 387.6 399.95 438 349.55 438 349.55 286.8 248.75 286.8 248.75 236.4"/><path class="cls-1" d="M472.45,438.5h-51.4V287.3H320.25V235.9h253v51.4H472.45Zm-50.4-1h49.4V286.3h100.8V236.9h-251v49.4h100.8Z" transform="translate(-72)"/></svg>